<?xml version="1.0" encoding="UTF-8" standalone="no"?>
<svg width="120" height="40" viewBox="0 0 120 40" fill="none" xmlns="http://www.w3.org/2000/svg">
  <path d="M24.8125 8L14.5 30H10.5L0.1875 8H4.5625L12.5 25.375L20.4375 8H24.8125Z" fill="#1F6CDB"/>
  <path d="M26 8H30.0625V21.75C30.0625 23.3333 30.4375 24.5417 31.1875 25.375C31.9375 26.2083 33.0208 26.625 34.4375 26.625C35.8542 26.625 36.9375 26.2083 37.6875 25.375C38.4375 24.5417 38.8125 23.3333 38.8125 21.75V8H42.875V21.75C42.875 24.25 42.1667 26.2083 40.75 27.625C39.3333 29.0417 37.2083 29.75 34.375 29.75C31.5417 29.75 29.4375 29.0417 28.0625 27.625C26.6875 26.2083 26 24.25 26 21.75V8Z" fill="#1F6CDB"/>
  <path d="M47.25 8H57.125C59.5417 8 61.4167 8.625 62.75 9.875C64.0833 11.125 64.75 12.875 64.75 15.125C64.75 17.375 64.0833 19.125 62.75 20.375C61.4167 21.625 59.5417 22.25 57.125 22.25H51.3125V30H47.25V8ZM56.875 18.875C58.0417 18.875 58.9167 18.5833 59.5 18C60.0833 17.4167 60.375 16.5 60.375 15.25C60.375 14 60.0833 13.0833 59.5 12.5C58.9167 11.9167 58.0417 11.625 56.875 11.625H51.3125V18.875H56.875Z" fill="#1F6CDB"/>
  <path d="M70.0625 8H74.125V26.625H85.5V30H70.0625V8Z" fill="#1F6CDB"/>
  <path d="M97.8125 30.5C95.8958 30.5 94.125 30.0417 92.5 29.125C90.875 28.2083 89.5833 26.9167 88.625 25.25C87.6667 23.5833 87.1875 21.6667 87.1875 19.5C87.1875 17.3333 87.6667 15.4167 88.625 13.75C89.5833 12.0833 90.875 10.7917 92.5 9.875C94.125 8.95833 95.8958 8.5 97.8125 8.5C99.7292 8.5 101.5 8.95833 103.125 9.875C104.75 10.7917 106.042 12.0833 107 13.75C107.958 15.4167 108.438 17.3333 108.438 19.5C108.438 21.6667 107.958 23.5833 107 25.25C106.042 26.9167 104.75 28.2083 103.125 29.125C101.5 30.0417 99.7292 30.5 97.8125 30.5ZM97.8125 26.75C98.9792 26.75 100.042 26.4583 101 25.875C101.958 25.2917 102.729 24.4583 103.312 23.375C103.896 22.2917 104.188 21 104.188 19.5C104.188 18 103.896 16.7083 103.312 15.625C102.729 14.5417 101.958 13.7083 101 13.125C100.042 12.5417 98.9792 12.25 97.8125 12.25C96.6458 12.25 95.5833 12.5417 94.625 13.125C93.6667 13.7083 92.8958 14.5417 92.3125 15.625C91.7292 16.7083 91.4375 18 91.4375 19.5C91.4375 21 91.7292 22.2917 92.3125 23.375C92.8958 24.4583 93.6667 25.2917 94.625 25.875C95.5833 26.4583 96.6458 26.75 97.8125 26.75Z" fill="#1F6CDB"/>
  <path d="M110.875 8H114.938V19.25L123.312 8H127.562L120.312 17.625L128 30H123.5L117.812 20.25L114.938 23.875V30H110.875V8Z" fill="#1F6CDB"/>
  <path d="M129.438 8H133.5V26.625H144.875V30H129.438V8Z" fill="white"/>
  <circle cx="15" cy="19" r="4" fill="#1F6CDB" />
  <circle cx="99" cy="19" r="4" fill="#1F6CDB" />
</svg>
